<mxfile host="Electron" modified="2024-09-15T18:15:41.987Z" agent="Mozilla/5.0 (Windows NT 10.0; Win64; x64) AppleWebKit/537.36 (KHTML, like Gecko) draw.io/21.6.8 Chrome/114.0.5735.289 Electron/25.5.0 Safari/537.36" etag="KsTugUrXKrqIXUE_P2V6" version="21.6.8" type="device">
  <diagram name="Страница — 1" id="qU3M8FVZ9Ut0bpP6d2oU">
    <mxGraphModel dx="723" dy="706" grid="1" gridSize="10" guides="1" tooltips="1" connect="1" arrows="1" fold="1" page="1" pageScale="1" pageWidth="827" pageHeight="1169" math="0" shadow="0">
      <root>
        <mxCell id="0" />
        <mxCell id="1" parent="0" />
        <mxCell id="SdbhccCcqrEkB0XmlXa4-3" value="Готовит грядки, заказывает ресурсы, ухаживает за растениями" style="shape=note;size=20;whiteSpace=wrap;html=1;" vertex="1" parent="1">
          <mxGeometry x="413" y="530" width="217" height="70" as="geometry" />
        </mxCell>
        <mxCell id="SdbhccCcqrEkB0XmlXa4-5" value="" style="endArrow=classic;html=1;rounded=0;entryX=0;entryY=0.5;entryDx=0;entryDy=0;exitX=1;exitY=0.3333333333333333;exitDx=0;exitDy=0;exitPerimeter=0;" edge="1" parent="1" source="SdbhccCcqrEkB0XmlXa4-7" target="SdbhccCcqrEkB0XmlXa4-12">
          <mxGeometry width="50" height="50" relative="1" as="geometry">
            <mxPoint x="120" y="640" as="sourcePoint" />
            <mxPoint x="170" y="590" as="targetPoint" />
          </mxGeometry>
        </mxCell>
        <mxCell id="SdbhccCcqrEkB0XmlXa4-6" value="Менеджер-агроном" style="shape=umlActor;verticalLabelPosition=bottom;verticalAlign=top;html=1;" vertex="1" parent="1">
          <mxGeometry x="80" y="460" width="30" height="60" as="geometry" />
        </mxCell>
        <mxCell id="SdbhccCcqrEkB0XmlXa4-7" value="Работник" style="shape=umlActor;verticalLabelPosition=bottom;verticalAlign=top;html=1;" vertex="1" parent="1">
          <mxGeometry x="80" y="620" width="30" height="60" as="geometry" />
        </mxCell>
        <mxCell id="SdbhccCcqrEkB0XmlXa4-8" value="Создает запрос" style="ellipse;whiteSpace=wrap;html=1;" vertex="1" parent="1">
          <mxGeometry x="220" y="480" width="150" height="50" as="geometry" />
        </mxCell>
        <mxCell id="SdbhccCcqrEkB0XmlXa4-9" value="" style="endArrow=classic;html=1;rounded=0;entryX=0;entryY=0.5;entryDx=0;entryDy=0;exitX=1;exitY=0.3333333333333333;exitDx=0;exitDy=0;exitPerimeter=0;" edge="1" parent="1" source="SdbhccCcqrEkB0XmlXa4-6" target="SdbhccCcqrEkB0XmlXa4-8">
          <mxGeometry width="50" height="50" relative="1" as="geometry">
            <mxPoint x="120" y="480" as="sourcePoint" />
            <mxPoint x="170" y="430" as="targetPoint" />
          </mxGeometry>
        </mxCell>
        <mxCell id="SdbhccCcqrEkB0XmlXa4-11" value="" style="endArrow=none;dashed=1;html=1;dashPattern=1 3;strokeWidth=2;rounded=0;exitX=1;exitY=0.5;exitDx=0;exitDy=0;entryX=0;entryY=0.5;entryDx=0;entryDy=0;entryPerimeter=0;" edge="1" parent="1" source="SdbhccCcqrEkB0XmlXa4-8" target="SdbhccCcqrEkB0XmlXa4-13">
          <mxGeometry width="50" height="50" relative="1" as="geometry">
            <mxPoint x="440" y="515" as="sourcePoint" />
            <mxPoint x="450" y="450" as="targetPoint" />
          </mxGeometry>
        </mxCell>
        <mxCell id="SdbhccCcqrEkB0XmlXa4-12" value="Выполяет запрос" style="ellipse;whiteSpace=wrap;html=1;" vertex="1" parent="1">
          <mxGeometry x="220" y="584" width="150" height="50" as="geometry" />
        </mxCell>
        <mxCell id="SdbhccCcqrEkB0XmlXa4-13" value="Проверяет возможность выполнения запроса" style="shape=note;size=20;whiteSpace=wrap;html=1;" vertex="1" parent="1">
          <mxGeometry x="420" y="400" width="160" height="70" as="geometry" />
        </mxCell>
        <mxCell id="SdbhccCcqrEkB0XmlXa4-14" value="" style="endArrow=block;dashed=1;endFill=0;endSize=12;html=1;rounded=0;exitX=0.5;exitY=1;exitDx=0;exitDy=0;entryX=0.5;entryY=0;entryDx=0;entryDy=0;" edge="1" parent="1" source="SdbhccCcqrEkB0XmlXa4-8" target="SdbhccCcqrEkB0XmlXa4-12">
          <mxGeometry width="160" relative="1" as="geometry">
            <mxPoint x="320" y="560" as="sourcePoint" />
            <mxPoint x="380" y="570" as="targetPoint" />
          </mxGeometry>
        </mxCell>
        <mxCell id="SdbhccCcqrEkB0XmlXa4-15" value="Поставщик" style="shape=umlActor;verticalLabelPosition=bottom;verticalAlign=top;html=1;" vertex="1" parent="1">
          <mxGeometry x="200" y="730" width="30" height="60" as="geometry" />
        </mxCell>
        <mxCell id="SdbhccCcqrEkB0XmlXa4-16" value="Организует поставки" style="ellipse;whiteSpace=wrap;html=1;" vertex="1" parent="1">
          <mxGeometry x="263" y="690" width="150" height="50" as="geometry" />
        </mxCell>
        <mxCell id="SdbhccCcqrEkB0XmlXa4-17" value="" style="endArrow=block;dashed=1;endFill=0;endSize=12;html=1;rounded=0;exitX=0.437;exitY=1.032;exitDx=0;exitDy=0;entryX=0.24;entryY=0.053;entryDx=0;entryDy=0;exitPerimeter=0;entryPerimeter=0;" edge="1" parent="1" source="SdbhccCcqrEkB0XmlXa4-12" target="SdbhccCcqrEkB0XmlXa4-16">
          <mxGeometry width="160" relative="1" as="geometry">
            <mxPoint x="260" y="650" as="sourcePoint" />
            <mxPoint x="260" y="704" as="targetPoint" />
          </mxGeometry>
        </mxCell>
        <mxCell id="SdbhccCcqrEkB0XmlXa4-18" value="" style="endArrow=block;dashed=1;endFill=0;endSize=12;html=1;rounded=0;exitX=0.391;exitY=-0.04;exitDx=0;exitDy=0;entryX=0.584;entryY=0.973;entryDx=0;entryDy=0;exitPerimeter=0;entryPerimeter=0;" edge="1" parent="1" source="SdbhccCcqrEkB0XmlXa4-16" target="SdbhccCcqrEkB0XmlXa4-12">
          <mxGeometry width="160" relative="1" as="geometry">
            <mxPoint x="296" y="646" as="sourcePoint" />
            <mxPoint x="309" y="703" as="targetPoint" />
          </mxGeometry>
        </mxCell>
        <mxCell id="SdbhccCcqrEkB0XmlXa4-19" value="" style="endArrow=classic;html=1;rounded=0;entryX=0.03;entryY=0.669;entryDx=0;entryDy=0;entryPerimeter=0;" edge="1" parent="1" target="SdbhccCcqrEkB0XmlXa4-16">
          <mxGeometry width="50" height="50" relative="1" as="geometry">
            <mxPoint x="230" y="750" as="sourcePoint" />
            <mxPoint x="310" y="759" as="targetPoint" />
          </mxGeometry>
        </mxCell>
        <mxCell id="SdbhccCcqrEkB0XmlXa4-20" value="Выполянет заказы поставки" style="shape=note;size=20;whiteSpace=wrap;html=1;" vertex="1" parent="1">
          <mxGeometry x="460" y="650" width="150" height="50" as="geometry" />
        </mxCell>
        <mxCell id="SdbhccCcqrEkB0XmlXa4-21" value="" style="endArrow=none;dashed=1;html=1;dashPattern=1 3;strokeWidth=2;rounded=0;exitX=0.936;exitY=0.232;exitDx=0;exitDy=0;entryX=0;entryY=0.5;entryDx=0;entryDy=0;entryPerimeter=0;exitPerimeter=0;" edge="1" parent="1" source="SdbhccCcqrEkB0XmlXa4-12" target="SdbhccCcqrEkB0XmlXa4-3">
          <mxGeometry width="50" height="50" relative="1" as="geometry">
            <mxPoint x="370" y="585" as="sourcePoint" />
            <mxPoint x="420" y="515" as="targetPoint" />
          </mxGeometry>
        </mxCell>
        <mxCell id="SdbhccCcqrEkB0XmlXa4-22" value="" style="endArrow=none;dashed=1;html=1;dashPattern=1 3;strokeWidth=2;rounded=0;exitX=1;exitY=0;exitDx=0;exitDy=0;entryX=0;entryY=0.5;entryDx=0;entryDy=0;entryPerimeter=0;" edge="1" parent="1" source="SdbhccCcqrEkB0XmlXa4-16" target="SdbhccCcqrEkB0XmlXa4-20">
          <mxGeometry width="50" height="50" relative="1" as="geometry">
            <mxPoint x="390" y="525" as="sourcePoint" />
            <mxPoint x="440" y="455" as="targetPoint" />
          </mxGeometry>
        </mxCell>
      </root>
    </mxGraphModel>
  </diagram>
</mxfile>
